<?xml version="1.0" encoding="UTF-8"?>
<svg id="Layer_1" xmlns="http://www.w3.org/2000/svg" version="1.1" viewBox="0 0 873.3 141.4">
  <!-- Generator: Adobe Illustrator 29.6.1, SVG Export Plug-In . SVG Version: 2.1.1 Build 9)  -->
  <defs>
    <style>
      .st0 {
        fill: #976f33;
      }

      .st1 {
        fill: #12284c;
      }
    </style>
  </defs>
  <path class="st0" d="M843,11.8c-8.3-5.8-17.8-9.9-28.2-11.7-4.5-.8-8.6,2.8-8.6,7.4v37.7c0,8.4,4.9,10.5,10.9,4.5l26.6-26.6c3.3-3.3,3.2-8.5-.7-11.2Z"/>
  <path class="st1" d="M760.9,11.8c8.3-5.8,17.8-9.9,28.2-11.7,4.5-.8,8.6,2.8,8.6,7.4v37.7c0,8.4-4.9,10.5-10.9,4.5l-26.6-26.6c-3.3-3.3-3.2-8.5.7-11.2Z"/>
  <path class="st1" d="M843,129.6c-8.3,5.8-17.8,9.9-28.2,11.7-4.5.8-8.6-2.8-8.6-7.4v-37.7c0-8.4,4.9-10.5,10.9-4.5l26.6,26.6c3.3,3.3,3.2,8.5-.7,11.2Z"/>
  <path class="st1" d="M760.9,129.6c8.3,5.8,17.8,9.9,28.2,11.7,4.5.8,8.6-2.8,8.6-7.4v-37.7c0-8.4-4.9-10.5-10.9-4.5l-26.6,26.6c-3.3,3.3-3.2,8.5.7,11.2Z"/>
  <path class="st1" d="M743.1,29.7c-5.8,8.3-9.9,17.8-11.7,28.2-.8,4.5,2.8,8.6,7.4,8.6h37.7c8.4,0,10.5-4.9,4.5-10.9l-26.6-26.6c-3.3-3.3-8.5-3.2-11.2.7Z"/>
  <path class="st0" d="M861.5,29.4c5.8,8.3,9.9,17.8,11.7,28.2.8,4.5-2.8,8.6-7.4,8.6h-37.7c-8.4,0-10.5-4.9-4.5-10.9l26.6-26.6c3.3-3.3,8.5-3.2,11.2.7Z"/>
  <path class="st1" d="M743.1,111.7c-5.8-8.3-9.9-17.8-11.7-28.2-.8-4.5,2.8-8.6,7.4-8.6h37.7c8.4,0,10.5,4.9,4.5,10.9l-26.6,26.6c-3.3,3.3-8.5,3.2-11.2-.7Z"/>
  <path class="st0" d="M860.8,111.7c5.8-8.3,9.9-17.8,11.7-28.2.8-4.5-2.8-8.6-7.4-8.6h-37.7c-8.4,0-10.5,4.9-4.5,10.9l26.6,26.6c3.3,3.3,8.5,3.2,11.2-.7Z"/>
  <g>
    <path class="st0" d="M14.1,27.7C6.2,27.7,0,22.2,0,14.7S6.2,1.7,14.1,1.7s14,5.5,14,13-6.1,13-14,13ZM14.1,5.7c-5.2,0-8.6,3.7-8.6,9s3.4,9,8.6,9,8.5-3.7,8.5-9-3.4-9-8.5-9Z"/>
    <path class="st0" d="M59.2,27h-5.8l-7.2-9.8h-3.2v9.8h-5.3V2.4h10.2c6.1,0,8.8,3.4,8.8,7.4s-1.9,5.9-5.2,6.8l7.7,10.3ZM43,13.7h4.1c3.3,0,4.4-1.6,4.4-3.8s-1.2-3.9-4.4-3.9h-4.1v7.7Z"/>
    <path class="st0" d="M87.1,27l-2.6-6.1h-10.5l-2.6,6.1h-5.1l11-24.6h4.1l11,24.6h-5.3ZM79.3,8.5l-3.8,8.9h7.6l-3.8-8.9Z"/>
    <path class="st0" d="M119.9,27l-13.5-16.2v16.2h-4.7V2.4h3.7l13.5,16.2V2.4h4.7v24.6h-3.7Z"/>
    <path class="st0" d="M147,27.7c-7.5,0-13.8-5-13.8-13s6.6-12.8,14.1-12.8,7,.9,9.2,2.5v4.5c-2.2-1.7-4.8-3-8.7-3s-9.1,3.4-9.1,9,3.7,9,8.8,9,3.7-.4,5-1v-4.8h-4.6v-3.7h9.6v10.9c-1.5.6-5.5,2.4-10.6,2.4Z"/>
    <path class="st0" d="M169.3,27V2.4h16.9v3.9h-11.6v5.8h9.5v3.9h-9.5v7.1h11.6v3.9h-16.9Z"/>
  </g>
  <g>
    <path class="st1" d="M1.7,92.8v-53.4h8.9v53.4H1.7Z"/>
    <path class="st1" d="M18.9,56c1.2-.6,2.5-1.1,4-1.6,1.5-.5,3-.9,4.7-1.3,1.7-.4,3.3-.7,5-.9,1.7-.2,3.4-.3,5-.3,3.8,0,6.9.5,9.3,1.6,2.4,1,4.2,2.6,5.4,4.8,1.2,2.2,1.8,4.9,1.8,8.1v26.6h-8.4v-25.4c0-1-.1-2-.4-3-.2-1-.7-1.9-1.4-2.7-.7-.8-1.6-1.5-2.9-2-1.3-.5-2.9-.7-4.9-.7s-2.9.1-4.4.4c-1.5.3-2.9.6-4.3,1.1v32.3h-8.4v-36.9Z"/>
    <path class="st1" d="M75.3,92.8l-16.9-40.2h9l13.8,33.4-2,.2,12.8-33.6h8.7l-17,40.2h-8.4Z"/>
    <path class="st1" d="M122,94c-3.9,0-7.4-.8-10.3-2.4-2.9-1.6-5.1-4-6.7-7.1-1.6-3.1-2.4-7-2.4-11.5,0-7,1.6-12.3,4.9-15.9,3.3-3.6,7.9-5.4,13.7-5.4s7.8,1,10.5,2.9c2.7,1.9,4.6,4.6,5.8,8,1.2,3.4,1.8,7.5,1.7,12h-31.6l-.2-6.2h25.4l-2,2c-.2-4.1-1-7.1-2.6-9-1.5-1.9-4-2.8-7.3-2.8s-3.9.4-5.4,1.3-2.6,2.4-3.4,4.5c-.8,2.1-1.2,5-1.2,8.7s1,7.9,3.1,10.2,5.1,3.5,9.2,3.5,3.5-.2,5.1-.5,3-.7,4.4-1.2c1.3-.5,2.5-1,3.4-1.5v7.8c-1.9.8-4,1.5-6.3,2-2.3.5-5,.8-7.9.8Z"/>
    <path class="st1" d="M159.1,94c-2.9,0-5.3-.3-7.3-.9-2-.6-4-1.4-5.9-2.3v-7.9c1.4.9,2.7,1.6,4.1,2.3,1.3.7,2.7,1.2,4.2,1.6,1.5.4,3.1.6,4.9.6s4.1-.5,5.4-1.4c1.3-1,2-2.2,2-3.6s-.4-2.2-1.2-2.9c-.8-.7-1.9-1.3-3.2-1.8-1.3-.5-2.6-1-4-1.4-1.4-.4-2.9-.8-4.3-1.3-1.4-.5-2.8-1.2-4-2.1s-2.2-2-2.9-3.4c-.7-1.4-1.1-3.1-1.1-5.1s.5-4.1,1.4-5.7c.9-1.6,2.1-2.9,3.6-3.8,1.5-1,3.1-1.7,4.9-2.2,1.8-.5,3.5-.7,5.2-.7,2.8,0,5.1.4,6.9,1,1.8.6,3.5,1.4,5.2,2.3v7.2c-1.8-1-3.7-1.9-5.4-2.6-1.7-.7-3.7-1.1-5.9-1.1s-3.8.4-5.2,1.2c-1.4.8-2.1,1.9-2.1,3.4s.4,2.3,1.2,3c.8.7,1.8,1.3,3,1.8,1.3.4,2.6.9,4,1.3,1.3.4,2.7.9,4.2,1.3,1.4.5,2.8,1.1,4,2,1.2.9,2.2,2,3,3.4.8,1.4,1.2,3.2,1.2,5.4,0,3-.8,5.4-2.4,7.3-1.5,1.9-3.5,3.2-6,4.1-2.5.9-5,1.3-7.6,1.3Z"/>
    <path class="st1" d="M197.6,93.9c-3.6,0-6.5-1-8.6-2.9-2.1-1.9-3.2-4.7-3.2-8.5v-22.9h-6.5v-7h6.5v-11.2h8.6v11.2h9.8v7h-9.8v21.2c0,1.9.3,3.3,1,4.2.7.9,1.9,1.4,3.7,1.4s1.8-.1,2.7-.4c.9-.2,1.7-.5,2.3-.9v7.4c-1,.4-2,.7-3.2,1-1.2.2-2.3.3-3.4.3Z"/>
    <path class="st1" d="M247.3,66.3v26.6h-8.4v-25.4c0-1-.1-2-.4-3-.2-1-.7-1.9-1.4-2.7-.7-.8-1.6-1.5-2.9-2-1.3-.5-2.9-.7-4.9-.7s-2.9.1-4.3.4c-1.4.3-2.8.6-4.2,1.1v32.3h-8.4v-36.9c1.2-.6,2.5-1.1,4-1.6,1.5-.5,3-.9,4.7-1.3,1.7-.4,3.3-.7,5-.9,1.7-.2,3.4-.3,5-.3,3.8,0,6.9.5,9.2,1.6,2.3,1,4.1,2.6,5.2,4.8,1.1,2.2,1.7,4.9,1.7,8.1ZM237.7,58c1.7-1.4,3.6-2.5,5.6-3.4,2.1-.9,4.2-1.6,6.4-2.1,2.2-.5,4.4-.7,6.5-.7,3.8,0,6.9.5,9.2,1.6,2.3,1,4.1,2.6,5.2,4.8,1.1,2.2,1.7,4.9,1.7,8.1v26.6h-8.4v-25.4c0-1-.1-2-.4-3-.2-1-.7-1.9-1.4-2.7-.7-.8-1.6-1.5-2.9-2-1.3-.5-2.9-.7-4.9-.7s-2.9.2-4.3.6c-1.4.4-2.8,1.1-4.2,2l-8.3-3.6Z"/>
    <path class="st1" d="M300,94c-3.9,0-7.4-.8-10.3-2.4-2.9-1.6-5.1-4-6.7-7.1-1.6-3.1-2.4-7-2.4-11.5,0-7,1.6-12.3,4.9-15.9,3.3-3.6,7.9-5.4,13.7-5.4s7.8,1,10.5,2.9c2.7,1.9,4.6,4.6,5.8,8,1.2,3.4,1.8,7.5,1.7,12h-31.6l-.2-6.2h25.4l-2,2c-.2-4.1-1-7.1-2.6-9-1.5-1.9-4-2.8-7.3-2.8s-3.9.4-5.4,1.3-2.6,2.4-3.4,4.5c-.8,2.1-1.2,5-1.2,8.7s1,7.9,3.1,10.2,5.1,3.5,9.2,3.5,3.5-.2,5.1-.5,3-.7,4.4-1.2c1.3-.5,2.5-1,3.4-1.5v7.8c-1.9.8-4,1.5-6.3,2-2.3.5-5,.8-7.9.8Z"/>
    <path class="st1" d="M325.4,56c1.2-.6,2.5-1.1,4-1.6,1.5-.5,3-.9,4.7-1.3,1.7-.4,3.3-.7,5-.9,1.7-.2,3.4-.3,5-.3,3.8,0,6.9.5,9.3,1.6,2.4,1,4.2,2.6,5.4,4.8,1.2,2.2,1.8,4.9,1.8,8.1v26.6h-8.4v-25.4c0-1-.1-2-.4-3-.2-1-.7-1.9-1.4-2.7-.7-.8-1.6-1.5-2.9-2-1.3-.5-2.9-.7-4.9-.7s-2.9.1-4.4.4c-1.5.3-2.9.6-4.3,1.1v32.3h-8.4v-36.9Z"/>
    <path class="st1" d="M385.1,93.9c-3.6,0-6.5-1-8.6-2.9-2.1-1.9-3.2-4.7-3.2-8.5v-22.9h-6.5v-7h6.5v-11.2h8.6v11.2h9.8v7h-9.8v21.2c0,1.9.3,3.3,1,4.2.7.9,1.9,1.4,3.7,1.4s1.8-.1,2.7-.4c.9-.2,1.7-.5,2.3-.9v7.4c-1,.4-2,.7-3.2,1-1.2.2-2.3.3-3.4.3Z"/>
    <path class="st1" d="M416.6,92.8l20.8-53.4h9.4l20.2,53.4h-9.3l-17.8-49,3.4-.3-17.8,49.4h-8.8ZM426.9,78.4l2.6-7.2h25.4l.7,7.2h-28.6Z"/>
    <path class="st1" d="M489,94c-2.5,0-4.9-.3-7.2-.9-2.3-.6-4.5-1.7-6.4-3.3-1.9-1.6-3.4-3.8-4.6-6.6-1.1-2.8-1.7-6.5-1.7-11,0-6.3,1.5-11.4,4.6-15,3.1-3.7,7.8-5.5,14.1-5.5s2.3.1,3.8.4c1.5.3,3,.7,4.6,1.2,1.5.5,2.9,1.2,3.9,2l-2.2,2.8v-22.2h8.3v48.6c0,1.7-.5,3.1-1.6,4.3-1,1.2-2.4,2.2-4.1,3-1.7.8-3.6,1.3-5.6,1.7-2,.4-4,.6-6,.6ZM489.2,86.8c2.4,0,4.5-.3,6.2-.9,1.7-.6,2.6-1.4,2.6-2.3v-22.3c-1.4-.8-2.9-1.4-4.4-1.8-1.5-.4-3-.6-4.5-.6-2.6,0-4.8.5-6.4,1.6-1.7,1-2.9,2.6-3.7,4.6-.8,2-1.2,4.5-1.2,7.4s.3,5.1,1,7.2c.6,2.2,1.8,3.9,3.5,5.2s4,1.9,7.1,1.9Z"/>
    <path class="st1" d="M528.4,92.8l-16.9-40.2h9l13.8,33.4-2,.2,12.8-33.6h8.7l-17,40.2h-8.4Z"/>
    <path class="st1" d="M560.6,46.3v-7.6h9v7.6h-9ZM560.8,92.8v-39.9h8.4v39.9c0,0-8.4,0-8.4,0Z"/>
    <path class="st1" d="M591.4,94c-2.9,0-5.3-.3-7.3-.9-2-.6-4-1.4-5.9-2.3v-7.9c1.4.9,2.7,1.6,4.1,2.3,1.3.7,2.7,1.2,4.2,1.6,1.5.4,3.1.6,4.9.6s4.1-.5,5.4-1.4c1.3-1,2-2.2,2-3.6s-.4-2.2-1.2-2.9c-.8-.7-1.9-1.3-3.2-1.8-1.3-.5-2.6-1-4-1.4-1.4-.4-2.9-.8-4.3-1.3-1.4-.5-2.8-1.2-4-2.1s-2.2-2-2.9-3.4c-.7-1.4-1.1-3.1-1.1-5.1s.5-4.1,1.4-5.7c.9-1.6,2.1-2.9,3.6-3.8,1.5-1,3.1-1.7,4.9-2.2,1.8-.5,3.5-.7,5.2-.7,2.8,0,5.1.4,6.9,1,1.8.6,3.5,1.4,5.2,2.3v7.2c-1.8-1-3.7-1.9-5.4-2.6-1.7-.7-3.7-1.1-5.9-1.1s-3.8.4-5.2,1.2c-1.4.8-2.1,1.9-2.1,3.4s.4,2.3,1.2,3c.8.7,1.8,1.3,3,1.8,1.3.4,2.6.9,4,1.3,1.3.4,2.7.9,4.2,1.3,1.4.5,2.8,1.1,4,2,1.2.9,2.2,2,3,3.4.8,1.4,1.2,3.2,1.2,5.4,0,3-.8,5.4-2.4,7.3-1.5,1.9-3.5,3.2-6,4.1-2.5.9-5,1.3-7.6,1.3Z"/>
    <path class="st1" d="M632.9,94c-6.5,0-11.3-1.8-14.5-5.5-3.2-3.7-4.8-8.9-4.8-15.8s1.6-12.6,4.9-16c3.3-3.4,8-5.1,14.2-5.1s8.1.8,11,2.4c2.9,1.6,5,4,6.4,7.2,1.4,3.1,2.1,7,2.1,11.4,0,6.8-1.7,12-5,15.7-3.3,3.7-8.1,5.6-14.3,5.6ZM632.8,86.9c2.7,0,4.9-.6,6.5-1.8,1.6-1.2,2.8-2.9,3.5-5,.7-2.1,1.1-4.6,1.1-7.4s-.4-5.7-1.1-7.8c-.7-2.1-1.9-3.6-3.5-4.7-1.6-1-3.7-1.6-6.4-1.6s-4.8.6-6.4,1.7c-1.6,1.1-2.7,2.7-3.4,4.8-.7,2.1-1,4.6-1,7.5,0,4.4.8,7.9,2.5,10.4,1.7,2.5,4.5,3.8,8.4,3.8Z"/>
    <path class="st1" d="M660.4,92.8v-36.5c.7-.4,2-1,3.8-1.8,1.9-.7,4.1-1.4,6.6-2,2.6-.6,5.1-.8,7.8-.8s2.4.1,3.3.3c.9.2,1.6.5,2.2.7v6.7c-1.2-.2-2.5-.3-3.8-.4-1.3,0-2.7,0-4,0-1.3,0-2.6.2-3.9.4-1.3.2-2.5.3-3.5.5v32.8h-8.4Z"/>
    <path class="st1" d="M702.2,94c-2.9,0-5.3-.3-7.3-.9-2-.6-4-1.4-5.9-2.3v-7.9c1.4.9,2.7,1.6,4.1,2.3,1.3.7,2.7,1.2,4.2,1.6,1.5.4,3.1.6,4.9.6s4.1-.5,5.4-1.4c1.3-1,2-2.2,2-3.6s-.4-2.2-1.2-2.9c-.8-.7-1.9-1.3-3.2-1.8-1.3-.5-2.6-1-4-1.4-1.4-.4-2.9-.8-4.3-1.3-1.4-.5-2.8-1.2-4-2.1s-2.2-2-2.9-3.4c-.7-1.4-1.1-3.1-1.1-5.1s.5-4.1,1.4-5.7c.9-1.6,2.1-2.9,3.6-3.8,1.5-1,3.1-1.7,4.9-2.2,1.8-.5,3.5-.7,5.2-.7,2.8,0,5.1.4,6.9,1,1.8.6,3.5,1.4,5.2,2.3v7.2c-1.8-1-3.7-1.9-5.4-2.6-1.7-.7-3.7-1.1-5.9-1.1s-3.8.4-5.2,1.2c-1.4.8-2.1,1.9-2.1,3.4s.4,2.3,1.2,3c.8.7,1.8,1.3,3,1.8,1.3.4,2.6.9,4,1.3,1.3.4,2.7.9,4.2,1.3,1.4.5,2.8,1.1,4,2,1.2.9,2.2,2,3,3.4.8,1.4,1.2,3.2,1.2,5.4,0,3-.8,5.4-2.4,7.3-1.5,1.9-3.5,3.2-6,4.1-2.5.9-5,1.3-7.6,1.3Z"/>
  </g>
  <g>
    <path class="st0" d="M424.4,111.4h.8l4.1,9.6h-1.3l-1.2-2.7h-4.2l-1.2,2.7h-1.2l4.1-9.6ZM426.4,117.3l-1.7-4-1.7,4h3.4Z"/>
    <path class="st0" d="M433.7,120.5l.2-1c.5.3,1.4.7,2.4.7s1.5-.3,1.5-1.1-.6-.9-1.8-1.2c-1.5-.4-2.1-1.2-2.1-2s.8-2,2.5-2,2.1.6,2.1.6l-.2.9c-.5-.3-1.2-.6-1.9-.6s-1.4.4-1.4.9.6.9,1.5,1.2c1.6.4,2.4,1.1,2.4,2,0,1.5-1.1,2.3-2.7,2.3s-2.6-.7-2.6-.7Z"/>
    <path class="st0" d="M440.7,118.2v-4.1h1.2v4c0,1.6.6,2.1,1.6,2.1s2.3-.9,2.3-2v-4.1h1.2v6.9h-1.1v-1.3c-.6.8-1.6,1.5-2.8,1.5-1.8,0-2.5-1.3-2.5-3Z"/>
    <path class="st0" d="M450.5,119.8v1.2h-1.1v-9.6h1.2v3.8c.6-.8,1.5-1.3,2.6-1.3,1.9,0,3.3,1.6,3.3,3.6s-1.4,3.6-3.3,3.6-2.1-.6-2.7-1.4ZM455.3,117.6c0-1.7-1.1-2.7-2.4-2.7s-2.4,1-2.4,2.7,1.1,2.7,2.4,2.7,2.4-1,2.4-2.7Z"/>
    <path class="st0" d="M457.9,120.5l.2-1c.5.3,1.4.7,2.4.7s1.5-.3,1.5-1.1-.6-.9-1.8-1.2c-1.5-.4-2.1-1.2-2.1-2s.8-2,2.5-2,2.1.6,2.1.6l-.2.9c-.5-.3-1.2-.6-1.9-.6s-1.4.4-1.4.9.6.9,1.5,1.2c1.6.4,2.4,1.1,2.4,2,0,1.5-1.1,2.3-2.7,2.3s-2.6-.7-2.6-.7Z"/>
    <path class="st0" d="M465,111.4h1.2v1.3h-1.2v-1.3ZM465,114.1h1.2v6.9h-1.2v-6.9Z"/>
    <path class="st0" d="M468.1,117.6c0-2,1.4-3.6,3.3-3.6s2,.5,2.6,1.3v-3.8h1.2v9.6h-1.1v-1.2c-.6.9-1.6,1.4-2.8,1.4-1.9,0-3.3-1.6-3.3-3.6ZM474.1,117.6c0-1.7-1.1-2.7-2.4-2.7s-2.4,1-2.4,2.7,1.1,2.7,2.4,2.7,2.4-1,2.4-2.7Z"/>
    <path class="st0" d="M477.5,111.4h1.2v1.3h-1.2v-1.3ZM477.5,114.1h1.2v6.9h-1.2v-6.9Z"/>
    <path class="st0" d="M480.7,117.6c0-2,1.4-3.6,3.3-3.6s2.1.6,2.7,1.4v-1.2h1.1v6.9h-1.1v-1.2c-.6.9-1.6,1.4-2.8,1.4-1.9,0-3.3-1.6-3.3-3.6ZM486.6,117.6c0-1.7-1.1-2.7-2.4-2.7s-2.4,1-2.4,2.7,1.1,2.7,2.4,2.7,2.4-1,2.4-2.7Z"/>
    <path class="st0" d="M490.1,114.1h1.1v1.3c.5-.8,1.6-1.5,2.8-1.5v1.3c-1.3-.2-2.6.5-2.6,1.7v4.1h-1.2v-6.9Z"/>
    <path class="st0" d="M497.7,120.6l-2.9-6.5h1.2l2.2,5.2,2.2-5.2h1.2l-4.4,10h-1.2l1.6-3.5Z"/>
    <path class="st0" d="M506,117.6c0-2,1.5-3.7,3.8-3.7s3.8,1.7,3.8,3.7-1.5,3.7-3.8,3.7-3.8-1.7-3.8-3.7ZM512.4,117.6c0-1.5-1-2.7-2.5-2.7s-2.6,1.2-2.6,2.7,1,2.7,2.6,2.7,2.5-1.2,2.5-2.7Z"/>
    <path class="st0" d="M515.7,114.9h-1.4v-.8h1.4c0-2,.8-2.8,2.2-2.8s.7,0,.9.1v.9c-.2,0-.5,0-.7,0-.8,0-1.1.4-1.1,1.8h0c0,0,1.9,0,1.9,0v.8h-1.9v6.1h-1.2v-6.1Z"/>
    <path class="st0" d="M523.1,116.2c0-2.9,2.2-5.1,5.1-5.1s5.1,2.1,5.1,5.1-2.2,5.1-5.1,5.1-5.1-2.1-5.1-5.1ZM531.9,116.2c0-2.3-1.6-4-3.8-4s-3.8,1.7-3.8,4,1.6,4,3.8,4,3.8-1.7,3.8-4Z"/>
    <path class="st0" d="M535.1,114.1h1.1v1.3c.5-.8,1.6-1.5,2.8-1.5v1.3c-1.3-.2-2.6.5-2.6,1.7v4.1h-1.2v-6.9Z"/>
    <path class="st0" d="M540.1,117.6c0-2,1.4-3.6,3.3-3.6s2.1.6,2.7,1.4v-1.2h1.1v6.9h-1.1v-1.2c-.6.9-1.6,1.4-2.8,1.4-1.9,0-3.3-1.6-3.3-3.6ZM546,117.6c0-1.7-1.1-2.7-2.4-2.7s-2.4,1-2.4,2.7,1.1,2.7,2.4,2.7,2.4-1,2.4-2.7Z"/>
    <path class="st0" d="M549.5,114.1h1.1v1.3c.6-.8,1.6-1.5,2.8-1.5,1.8,0,2.5,1.3,2.5,3v4.1h-1.2v-4c0-1.6-.6-2.1-1.6-2.1s-2.3.9-2.3,2v4.1h-1.2v-6.9Z"/>
    <path class="st0" d="M558.3,123.5v-1.1c1.1.6,1.8.9,3,.9s2.3-.7,2.3-2.8v-.6c-.6.8-1.5,1.3-2.6,1.3-1.9,0-3.3-1.6-3.3-3.6s1.4-3.6,3.3-3.6,2.1.6,2.7,1.4v-1.2h1.1v6.3c0,3.2-2,3.9-3.7,3.9s-2.1-.4-2.8-.8ZM563.7,117.6c0-1.7-1.1-2.7-2.4-2.7s-2.4,1-2.4,2.7,1.1,2.7,2.4,2.7,2.4-1,2.4-2.7Z"/>
    <path class="st0" d="M566.7,117.5c0-2.2,1.6-3.6,3.3-3.6s2.9,1.1,2.9,2.7,0,.5,0,.8h-5c0,1.2.5,2.8,2.7,2.8s1.7-.4,2.3-.9v1.1c-.7.5-1.7.8-2.7.8-2,0-3.5-1.6-3.5-3.7ZM571.9,116.5c.1-.9-.6-1.7-1.7-1.7s-1.9.5-2.1,1.7h3.8Z"/>
    <path class="st0" d="M578,116.2c0-3.1,2.3-5,5.1-5s2.5.4,3.3,1v1.3c-.8-.7-1.8-1.3-3.3-1.3-2.2,0-3.8,1.5-3.8,3.9s1.6,3.9,3.8,3.9,2.5-.6,3.3-1.3v1.3c-.8.6-2.1,1-3.3,1-2.8,0-5.1-1.9-5.1-5Z"/>
    <path class="st0" d="M587.9,117.6c0-2,1.5-3.7,3.8-3.7s3.8,1.7,3.8,3.7-1.5,3.7-3.8,3.7-3.8-1.7-3.8-3.7ZM594.2,117.6c0-1.5-1-2.7-2.5-2.7s-2.6,1.2-2.6,2.7,1,2.7,2.6,2.7,2.5-1.2,2.5-2.7Z"/>
    <path class="st0" d="M597.2,118.2v-4.1h1.2v4c0,1.6.6,2.1,1.6,2.1s2.3-.9,2.3-2v-4.1h1.2v6.9h-1.1v-1.3c-.6.8-1.6,1.5-2.8,1.5-1.8,0-2.5-1.3-2.5-3Z"/>
    <path class="st0" d="M605.8,114.1h1.1v1.3c.6-.8,1.6-1.5,2.8-1.5,1.8,0,2.5,1.3,2.5,3v4.1h-1.2v-4c0-1.6-.6-2.1-1.6-2.1s-2.3.9-2.3,2v4.1h-1.2v-6.9Z"/>
    <path class="st0" d="M615.3,114.9h-1.6v-.8h1.6v-1.9h1.2v1.9h1.6v.8h-1.6v6.1h-1.2v-6.1Z"/>
    <path class="st0" d="M621.5,120.6l-2.9-6.5h1.2l2.2,5.2,2.2-5.2h1.2l-4.4,10h-1.2l1.6-3.5Z"/>
    <path class="st0" d="M630.3,111.4h3.2c2,0,2.8,1.1,2.8,2.5s-.5,1.5-1,1.9c.9.4,1.5,1.4,1.5,2.4,0,1.6-.9,2.8-3.1,2.8h-3.3v-9.6ZM633.5,115.4c1.2,0,1.6-.7,1.6-1.5s-.4-1.4-1.6-1.4h-1.9v2.9h1.9ZM633.7,119.9c1.4,0,1.9-.9,1.9-1.7s-.4-1.7-1.9-1.7h-2v3.5h2Z"/>
    <path class="st0" d="M638.2,117.6c0-2,1.4-3.6,3.3-3.6s2.1.6,2.7,1.4v-1.2h1.1v6.9h-1.1v-1.2c-.6.9-1.6,1.4-2.8,1.4-1.9,0-3.3-1.6-3.3-3.6ZM644.2,117.6c0-1.7-1.1-2.7-2.4-2.7s-2.4,1-2.4,2.7,1.1,2.7,2.4,2.7,2.4-1,2.4-2.7Z"/>
    <path class="st0" d="M647.6,114.1h1.1v1.3c.6-.8,1.6-1.5,2.8-1.5,1.8,0,2.5,1.3,2.5,3v4.1h-1.2v-4c0-1.6-.6-2.1-1.6-2.1s-2.3.9-2.3,2v4.1h-1.2v-6.9Z"/>
    <path class="st0" d="M655.8,117.6c0-2.2,1.5-3.6,3.6-3.6s1.6.2,2.4.7v1.1c-.7-.6-1.5-.8-2.3-.8-1.5,0-2.5,1.1-2.5,2.7s1,2.7,2.5,2.7,1.6-.2,2.3-.8v1.1c-.8.5-1.5.7-2.4.7-2.1,0-3.6-1.5-3.6-3.6Z"/>
    <path class="st0" d="M663.2,117.6c0-2,1.5-3.7,3.8-3.7s3.8,1.7,3.8,3.7-1.5,3.7-3.8,3.7-3.8-1.7-3.8-3.7ZM669.6,117.6c0-1.5-1-2.7-2.5-2.7s-2.6,1.2-2.6,2.7,1,2.7,2.6,2.7,2.5-1.2,2.5-2.7Z"/>
    <path class="st0" d="M672.6,114.1h1.1v1.3c.5-.8,1.6-1.5,2.8-1.5v1.3c-1.3-.2-2.6.5-2.6,1.7v4.1h-1.2v-6.9Z"/>
    <path class="st0" d="M678,114.1h1.1v1.2c.6-.9,1.6-1.4,2.8-1.4,1.9,0,3.3,1.6,3.3,3.6s-1.4,3.6-3.3,3.6-2-.5-2.6-1.3v4.2h-1.2v-10ZM683.9,117.6c0-1.7-1.1-2.7-2.4-2.7s-2.4,1-2.4,2.7,1.1,2.7,2.4,2.7,2.4-1,2.4-2.7Z"/>
    <path class="st0" d="M687,122.6c.5-.3.8-1,.8-1.6h-.7v-1.5h1.5v1.3c0,1.1-.5,2-1.3,2.2l-.2-.4Z"/>
    <path class="st0" d="M694.4,111.4h1.3v9.6h-1.3v-9.6Z"/>
    <path class="st0" d="M698,114.1h1.1v1.3c.6-.8,1.6-1.5,2.8-1.5,1.8,0,2.5,1.3,2.5,3v4.1h-1.2v-4c0-1.6-.6-2.1-1.6-2.1s-2.3.9-2.3,2v4.1h-1.2v-6.9Z"/>
    <path class="st0" d="M706.2,117.6c0-2.2,1.5-3.6,3.6-3.6s1.6.2,2.4.7v1.1c-.7-.6-1.5-.8-2.3-.8-1.5,0-2.5,1.1-2.5,2.7s1,2.7,2.5,2.7,1.6-.2,2.3-.8v1.1c-.8.5-1.5.7-2.4.7-2.1,0-3.6-1.5-3.6-3.6Z"/>
    <path class="st0" d="M714.2,119.5h1.5v1.5h-1.5v-1.5Z"/>
  </g>
  <metadata>
    <sfw xmlns="http://ns.adobe.com/SaveForWeb/1.0/">
      <slices/>
      <sliceSourceBounds x="339" y="-7796" width="874" height="16383" bottomLeftOrigin="true"/>
    </sfw>
  </metadata>
</svg>